<mxfile host="app.diagrams.net" modified="2023-08-03T01:59:35.794Z" agent="Mozilla/5.0 (Windows NT 10.0; Win64; x64) AppleWebKit/537.36 (KHTML, like Gecko) Chrome/115.0.0.0 Safari/537.36" etag="5WLG_Qi5CcGxkZ10IyL9" version="21.6.6" type="github">
  <diagram name="Halaman-1" id="MYogeUl-w8vbvfO0HhdK">
    <mxGraphModel dx="794" dy="712" grid="1" gridSize="10" guides="1" tooltips="1" connect="1" arrows="1" fold="1" page="1" pageScale="1" pageWidth="827" pageHeight="1169" math="0" shadow="0">
      <root>
        <mxCell id="0" />
        <mxCell id="1" parent="0" />
        <mxCell id="tGttYDdX-y-9wnAoptIY-1" value="Pengguna" style="rounded=0;whiteSpace=wrap;html=1;" vertex="1" parent="1">
          <mxGeometry x="60" y="40" width="120" height="60" as="geometry" />
        </mxCell>
        <mxCell id="tGttYDdX-y-9wnAoptIY-2" value="menampilkan buku" style="rounded=0;whiteSpace=wrap;html=1;" vertex="1" parent="1">
          <mxGeometry x="560" y="430" width="120" height="60" as="geometry" />
        </mxCell>
        <mxCell id="tGttYDdX-y-9wnAoptIY-3" value="dapatkan buku" style="ellipse;whiteSpace=wrap;html=1;aspect=fixed;" vertex="1" parent="1">
          <mxGeometry x="320" y="40" width="80" height="80" as="geometry" />
        </mxCell>
        <mxCell id="tGttYDdX-y-9wnAoptIY-4" value="mencari letak buku" style="ellipse;whiteSpace=wrap;html=1;aspect=fixed;" vertex="1" parent="1">
          <mxGeometry x="320" y="200" width="80" height="80" as="geometry" />
        </mxCell>
        <mxCell id="tGttYDdX-y-9wnAoptIY-5" value="pembaruan daftar pembaca buku dan jumalh buku" style="ellipse;whiteSpace=wrap;html=1;aspect=fixed;" vertex="1" parent="1">
          <mxGeometry x="310" y="360" width="100" height="100" as="geometry" />
        </mxCell>
        <mxCell id="tGttYDdX-y-9wnAoptIY-6" value="rak buku" style="shape=partialRectangle;whiteSpace=wrap;html=1;left=0;right=0;fillColor=none;" vertex="1" parent="1">
          <mxGeometry x="560" y="40" width="120" height="60" as="geometry" />
        </mxCell>
        <mxCell id="tGttYDdX-y-9wnAoptIY-7" value="daftar pengarang" style="shape=partialRectangle;whiteSpace=wrap;html=1;left=0;right=0;fillColor=none;" vertex="1" parent="1">
          <mxGeometry x="560" y="130" width="120" height="60" as="geometry" />
        </mxCell>
        <mxCell id="tGttYDdX-y-9wnAoptIY-8" value="daftar judul" style="shape=partialRectangle;whiteSpace=wrap;html=1;left=0;right=0;fillColor=none;" vertex="1" parent="1">
          <mxGeometry x="560" y="240" width="120" height="60" as="geometry" />
        </mxCell>
        <mxCell id="tGttYDdX-y-9wnAoptIY-9" value="daftar buku dibaca" style="shape=partialRectangle;whiteSpace=wrap;html=1;left=0;right=0;fillColor=none;" vertex="1" parent="1">
          <mxGeometry x="560" y="340" width="120" height="60" as="geometry" />
        </mxCell>
        <mxCell id="tGttYDdX-y-9wnAoptIY-10" value="" style="endArrow=classic;html=1;rounded=0;entryX=0;entryY=0;entryDx=0;entryDy=0;exitX=1;exitY=0.25;exitDx=0;exitDy=0;" edge="1" parent="1" source="tGttYDdX-y-9wnAoptIY-1" target="tGttYDdX-y-9wnAoptIY-3">
          <mxGeometry relative="1" as="geometry">
            <mxPoint x="180" y="69.5" as="sourcePoint" />
            <mxPoint x="310" y="70" as="targetPoint" />
          </mxGeometry>
        </mxCell>
        <mxCell id="tGttYDdX-y-9wnAoptIY-11" value="meminta buku" style="edgeLabel;resizable=0;html=1;align=center;verticalAlign=middle;" connectable="0" vertex="1" parent="tGttYDdX-y-9wnAoptIY-10">
          <mxGeometry relative="1" as="geometry" />
        </mxCell>
        <mxCell id="tGttYDdX-y-9wnAoptIY-14" value="" style="endArrow=classic;html=1;rounded=0;exitX=1;exitY=0.25;exitDx=0;exitDy=0;" edge="1" parent="1">
          <mxGeometry relative="1" as="geometry">
            <mxPoint x="180" y="83" as="sourcePoint" />
            <mxPoint x="320" y="80" as="targetPoint" />
          </mxGeometry>
        </mxCell>
        <mxCell id="tGttYDdX-y-9wnAoptIY-15" value="buku" style="edgeLabel;resizable=0;html=1;align=center;verticalAlign=middle;" connectable="0" vertex="1" parent="tGttYDdX-y-9wnAoptIY-14">
          <mxGeometry relative="1" as="geometry" />
        </mxCell>
        <mxCell id="tGttYDdX-y-9wnAoptIY-16" value="" style="endArrow=classic;html=1;rounded=0;entryX=1;entryY=0.5;entryDx=0;entryDy=0;exitX=0;exitY=0.5;exitDx=0;exitDy=0;" edge="1" parent="1" source="tGttYDdX-y-9wnAoptIY-6" target="tGttYDdX-y-9wnAoptIY-3">
          <mxGeometry relative="1" as="geometry">
            <mxPoint x="200" y="75" as="sourcePoint" />
            <mxPoint x="352" y="72" as="targetPoint" />
          </mxGeometry>
        </mxCell>
        <mxCell id="tGttYDdX-y-9wnAoptIY-17" value="buku" style="edgeLabel;resizable=0;html=1;align=center;verticalAlign=middle;" connectable="0" vertex="1" parent="tGttYDdX-y-9wnAoptIY-16">
          <mxGeometry relative="1" as="geometry" />
        </mxCell>
        <mxCell id="tGttYDdX-y-9wnAoptIY-18" value="" style="endArrow=classic;html=1;rounded=0;entryX=1;entryY=0.5;entryDx=0;entryDy=0;exitX=0;exitY=0.5;exitDx=0;exitDy=0;" edge="1" parent="1" source="tGttYDdX-y-9wnAoptIY-7" target="tGttYDdX-y-9wnAoptIY-4">
          <mxGeometry relative="1" as="geometry">
            <mxPoint x="580" y="80" as="sourcePoint" />
            <mxPoint x="410" y="90" as="targetPoint" />
          </mxGeometry>
        </mxCell>
        <mxCell id="tGttYDdX-y-9wnAoptIY-19" value="pengarang" style="edgeLabel;resizable=0;html=1;align=center;verticalAlign=middle;" connectable="0" vertex="1" parent="tGttYDdX-y-9wnAoptIY-18">
          <mxGeometry relative="1" as="geometry" />
        </mxCell>
        <mxCell id="tGttYDdX-y-9wnAoptIY-20" value="" style="endArrow=classic;html=1;rounded=0;entryX=1;entryY=1;entryDx=0;entryDy=0;exitX=0;exitY=0.5;exitDx=0;exitDy=0;" edge="1" parent="1" source="tGttYDdX-y-9wnAoptIY-8" target="tGttYDdX-y-9wnAoptIY-4">
          <mxGeometry relative="1" as="geometry">
            <mxPoint x="570" y="170" as="sourcePoint" />
            <mxPoint x="410" y="250" as="targetPoint" />
          </mxGeometry>
        </mxCell>
        <mxCell id="tGttYDdX-y-9wnAoptIY-21" value="judul" style="edgeLabel;resizable=0;html=1;align=center;verticalAlign=middle;" connectable="0" vertex="1" parent="tGttYDdX-y-9wnAoptIY-20">
          <mxGeometry relative="1" as="geometry" />
        </mxCell>
        <mxCell id="tGttYDdX-y-9wnAoptIY-22" value="judul buku dan nama pengguna" style="endArrow=classic;startArrow=classic;html=1;rounded=0;entryX=0;entryY=0.5;entryDx=0;entryDy=0;exitX=1;exitY=0;exitDx=0;exitDy=0;" edge="1" parent="1" source="tGttYDdX-y-9wnAoptIY-5" target="tGttYDdX-y-9wnAoptIY-9">
          <mxGeometry width="50" height="50" relative="1" as="geometry">
            <mxPoint x="380" y="390" as="sourcePoint" />
            <mxPoint x="430" y="340" as="targetPoint" />
          </mxGeometry>
        </mxCell>
        <mxCell id="tGttYDdX-y-9wnAoptIY-23" value="meminta informasi buku" style="endArrow=classic;html=1;rounded=0;exitX=1;exitY=0.5;exitDx=0;exitDy=0;" edge="1" parent="1" source="tGttYDdX-y-9wnAoptIY-5" target="tGttYDdX-y-9wnAoptIY-2">
          <mxGeometry width="50" height="50" relative="1" as="geometry">
            <mxPoint x="380" y="390" as="sourcePoint" />
            <mxPoint x="430" y="340" as="targetPoint" />
          </mxGeometry>
        </mxCell>
        <mxCell id="tGttYDdX-y-9wnAoptIY-24" value="judul buku" style="endArrow=classic;html=1;rounded=0;entryX=0.5;entryY=0;entryDx=0;entryDy=0;exitX=0.5;exitY=1;exitDx=0;exitDy=0;" edge="1" parent="1" source="tGttYDdX-y-9wnAoptIY-4" target="tGttYDdX-y-9wnAoptIY-5">
          <mxGeometry width="50" height="50" relative="1" as="geometry">
            <mxPoint x="380" y="390" as="sourcePoint" />
            <mxPoint x="430" y="340" as="targetPoint" />
          </mxGeometry>
        </mxCell>
        <mxCell id="tGttYDdX-y-9wnAoptIY-25" value="rak nomor dan informasi atau nomor buku" style="endArrow=classic;html=1;rounded=0;entryX=0.5;entryY=1;entryDx=0;entryDy=0;exitX=0.5;exitY=0;exitDx=0;exitDy=0;" edge="1" parent="1" source="tGttYDdX-y-9wnAoptIY-4" target="tGttYDdX-y-9wnAoptIY-3">
          <mxGeometry width="50" height="50" relative="1" as="geometry">
            <mxPoint x="370" y="290" as="sourcePoint" />
            <mxPoint x="370" y="370" as="targetPoint" />
          </mxGeometry>
        </mxCell>
      </root>
    </mxGraphModel>
  </diagram>
</mxfile>
